<svg width="253" height="253" viewBox="0 0 253 253" fill="none" xmlns="http://www.w3.org/2000/svg">
<path d="M0 126.5C0 92.9501 13.3276 60.7743 37.051 37.051C60.7743 13.3276 92.9501 0 126.5 0C160.05 0 192.226 13.3276 215.949 37.051C239.672 60.7743 253 92.9501 253 126.5V209.516C253 212.661 251.751 215.677 249.526 217.901C247.302 220.126 244.286 221.375 241.141 221.375C237.995 221.375 234.979 220.126 232.755 217.901C230.531 215.677 229.281 212.661 229.281 209.516V126.5C229.281 99.2407 218.453 73.0979 199.177 53.8227C179.902 34.5475 153.759 23.7188 126.5 23.7188C99.2407 23.7188 73.0979 34.5475 53.8227 53.8227C34.5475 73.0979 23.7188 99.2407 23.7188 126.5V209.516C23.7188 212.661 22.4693 215.677 20.2452 217.901C18.0212 220.126 15.0047 221.375 11.8594 221.375C8.71407 221.375 5.69759 220.126 3.47353 217.901C1.24947 215.677 0 212.661 0 209.516L0 126.5ZM47.4375 106.734C47.4375 91.4595 59.8345 79.0625 75.1094 79.0625H177.891C193.165 79.0625 205.562 91.4595 205.562 106.734V130.453C205.562 137.792 202.647 144.831 197.458 150.02C192.268 155.21 185.23 158.125 177.891 158.125H75.1094C67.7703 158.125 60.7319 155.21 55.5424 150.02C50.3529 144.831 47.4375 137.792 47.4375 130.453V106.734ZM70.6819 98.3537C68.461 100.577 67.2136 103.592 67.2136 106.734C67.2136 109.877 68.461 112.891 70.6819 115.115L94.4006 138.834C96.6243 141.055 99.6385 142.302 102.781 142.302C105.924 142.302 108.938 141.055 111.162 138.834L126.5 123.496L141.838 138.834C144.062 141.055 147.076 142.302 150.219 142.302C153.361 142.302 156.376 141.055 158.599 138.834L182.318 115.115C183.879 113.665 185.02 111.822 185.622 109.778C186.223 107.734 186.261 105.566 185.734 103.502C185.206 101.438 184.131 99.5549 182.623 98.0505C181.115 96.5461 179.229 95.4764 177.163 94.9541C175.102 94.4274 172.936 94.4651 170.894 95.0632C168.852 95.6614 167.009 96.798 165.557 98.3537L150.219 113.692L134.881 98.3537C132.657 96.1329 129.643 94.8854 126.5 94.8854C123.357 94.8854 120.343 96.1329 118.119 98.3537L102.781 113.692L87.4431 98.3537C85.2195 96.1329 82.2052 94.8854 79.0625 94.8854C75.9198 94.8854 72.9055 96.1329 70.6819 98.3537ZM86.9688 193.703C86.9688 190.558 88.2182 187.541 90.4423 185.317C92.6663 183.093 95.6828 181.844 98.8281 181.844H154.172C157.317 181.844 160.334 183.093 162.558 185.317C164.782 187.541 166.031 190.558 166.031 193.703C166.031 196.848 164.782 199.865 162.558 202.089C160.334 204.313 157.317 205.562 154.172 205.562H98.8281C95.6828 205.562 92.6663 204.313 90.4423 202.089C88.2182 199.865 86.9688 196.848 86.9688 193.703Z" fill="url(#paint0_linear_72_152)" fill-opacity="0.75"/>
<defs>
<linearGradient id="paint0_linear_72_152" x1="126.5" y1="0" x2="126.5" y2="221.375" gradientUnits="userSpaceOnUse">
<stop stop-color="white"/>
<stop offset="1" stop-color="#999999"/>
</linearGradient>
</defs>
</svg>
