<svg width="47" height="46" viewBox="0 0 47 46" fill="none" xmlns="http://www.w3.org/2000/svg">
<rect width="47" height="46" rx="23" fill="#39D7FF" fill-opacity="0.75"/>
<path fill-rule="evenodd" clip-rule="evenodd" d="M13.9028 14.566C16.8315 14.566 18.4766 13.0233 18.4766 10.2843C18.4766 7.54539 16.8287 6 13.9028 6C10.977 6 9.3261 7.54269 9.3261 10.2843C9.3261 13.026 10.9741 14.566 13.9028 14.566ZM35.0661 16.6851C35.0775 16.9517 35.1448 17.2136 35.2643 17.4558C35.3838 17.698 35.5531 17.9157 35.7625 18.0967C35.9719 18.2776 36.2173 18.4182 36.4848 18.5104C36.7522 18.6025 37.0364 18.6445 37.3212 18.6338C37.6059 18.6231 37.8857 18.5601 38.1444 18.4482C38.4031 18.3364 38.6357 18.1779 38.829 17.9819C39.0223 17.7858 39.1725 17.5561 39.271 17.3057C39.3694 17.0554 39.4142 16.7893 39.4028 16.5228C39.3647 15.6464 39.3175 14.7703 39.2611 13.8948C39.1531 12.1392 38.3598 10.482 37.032 9.23804C35.7042 7.9941 33.9346 7.25014 32.0593 7.14754C30.6156 7.06815 29.1826 7.00951 27.7601 6.97162C27.185 6.95619 26.627 7.15525 26.2086 7.52501C25.7903 7.89477 25.5461 8.40494 25.5296 8.94329C25.5131 9.48164 25.7257 10.0041 26.1207 10.3957C26.5157 10.7872 27.0607 11.0159 27.6358 11.0313C29.0139 11.0674 30.4026 11.1243 31.802 11.2018C32.6178 11.2445 33.3883 11.5669 33.9664 12.1076C34.5445 12.6482 34.8896 13.3692 34.936 14.1329C34.9899 14.9882 35.0343 15.8389 35.069 16.6851H35.0661ZM18.8611 38.9973C19.4288 39.0031 19.9762 38.8002 20.3858 38.4324C20.7954 38.0645 21.0346 37.561 21.052 37.0298C21.0695 36.4987 20.8637 35.9823 20.4789 35.5917C20.0941 35.201 19.5611 34.9671 18.9941 34.9403C17.6931 34.9042 16.3815 34.8492 15.0593 34.7752C14.2429 34.7325 13.472 34.4097 12.8939 33.8684C12.3157 33.3272 11.9709 32.6056 11.9253 31.8414L11.8588 30.6938C11.8242 30.1599 11.5659 29.6604 11.14 29.3038C10.7141 28.9472 10.1551 28.7624 9.58449 28.7895C9.01386 28.8166 8.47771 29.0534 8.09258 29.4485C7.70746 29.8437 7.50449 30.3651 7.5278 30.8995L7.59719 32.0823C7.70603 33.8378 8.50005 35.4947 9.82834 36.7382C11.1566 37.9816 12.9266 38.7249 14.802 38.8268C16.1666 38.9044 17.5196 38.9612 18.8611 38.9973ZM33.1001 31.7575C36.8673 31.7575 39.452 34.2204 39.9868 37.6522C40.1025 38.391 39.4404 39 38.6424 39H27.5548C26.7569 39 26.0948 38.391 26.2105 37.6522C26.7453 34.2177 29.33 31.7575 33.1001 31.7575ZM20.7895 22.2848C20.2576 18.8557 17.6729 16.3956 13.9028 16.3956C10.1327 16.3956 7.54804 18.8584 7.01317 22.2902C6.89753 23.0291 7.5596 23.6381 8.35756 23.6381H19.448C20.246 23.6381 20.9052 23.0291 20.7895 22.2902V22.2848ZM37.6739 25.6517C37.6739 28.3933 36.0259 29.936 33.0972 29.936C30.1685 29.936 28.5234 28.3933 28.5234 25.6517C28.5234 22.91 30.1713 21.3673 33.0972 21.3673C36.0231 21.3673 37.6739 22.91 37.6739 25.6517Z" fill="white"/>
</svg>
