<svg width="52" height="54" viewBox="0 0 52 54" fill="none" xmlns="http://www.w3.org/2000/svg">
<path opacity="0.987" fill-rule="evenodd" clip-rule="evenodd" d="M22.7196 0.231609C25.4837 -0.0772031 27.1193 -0.0772031 30.0892 0.231609C35.3464 1.00972 40.2198 3.43977 44.0048 7.17036C41.4471 9.588 38.923 12.0409 36.4332 14.5285C31.665 10.4872 26.3428 9.55444 20.4665 11.7301C16.1558 13.7126 13.1541 16.9253 11.4613 21.3681C8.69514 19.3087 5.96498 17.2014 3.27209 15.047C3.08494 14.9485 2.87119 14.9124 2.66209 14.944C6.93971 6.69634 13.6243 1.79092 22.7158 0.227797" fill="#F44336"/>
<path opacity="0.997" fill-rule="evenodd" clip-rule="evenodd" d="M2.65446 14.9443C2.8705 14.9112 3.07511 14.9456 3.26827 15.0472C5.96116 17.2016 8.69133 19.309 11.4575 21.3683C11.0222 23.0994 10.7478 24.8671 10.6378 26.6487C10.7319 28.3719 11.0051 30.0634 11.4575 31.7231L2.86034 38.5665C-0.883539 30.7433 -0.952164 22.8692 2.65446 14.9443Z" fill="#FFC107"/>
<path opacity="0.999" fill-rule="evenodd" clip-rule="evenodd" d="M43.5969 46.8547C40.92 44.4939 38.1175 42.2795 35.2018 40.221C38.1247 38.1571 39.8988 35.3257 40.524 31.7267H26.2005V21.7799C34.4609 21.7113 42.7175 21.7812 50.9703 21.9896C52.5359 30.4915 50.7275 38.1571 45.5451 44.9866C44.9289 45.6417 44.2761 46.2652 43.5969 46.8547Z" fill="#448AFF"/>
<path opacity="0.993" fill-rule="evenodd" clip-rule="evenodd" d="M11.4575 31.7266C14.5838 39.4964 20.3152 43.1234 28.6519 42.6074C30.9921 42.3365 33.2358 41.519 35.2018 40.2208C38.1196 42.2846 40.918 44.4959 43.5969 46.8546C39.3522 50.6688 33.9403 52.932 28.244 53.2748C26.9498 53.3783 25.6494 53.3783 24.3552 53.2748C14.6511 52.1311 7.48617 47.2282 2.86034 38.5662L11.4575 31.7266Z" fill="#43A047"/>
</svg>
