<svg width="47" height="46" viewBox="0 0 47 46" fill="none" xmlns="http://www.w3.org/2000/svg">
<rect width="47" height="46" rx="23" fill="#81FF39" fill-opacity="0.75"/>
<path d="M39.868 13.9812C39.7007 13.5945 39.3804 13.2872 38.9773 13.1266C38.779 13.0455 38.566 13.0025 38.3505 13H30.1029C29.6654 13 29.2458 13.1667 28.9365 13.4635C28.6271 13.7603 28.4533 14.1628 28.4533 14.5826C28.4533 15.0023 28.6271 15.4048 28.9365 15.7016C29.2458 15.9984 29.6654 16.1651 30.1029 16.1651H34.3751L25.1543 25.0117L19.7274 19.7892C19.574 19.6409 19.3916 19.5232 19.1906 19.4428C18.9896 19.3625 18.774 19.3211 18.5562 19.3211C18.3385 19.3211 18.1229 19.3625 17.9218 19.4428C17.7208 19.5232 17.5384 19.6409 17.3851 19.7892L7.48793 29.2846C7.33332 29.4318 7.2106 29.6068 7.12686 29.7996C7.04312 29.9925 7 30.1993 7 30.4083C7 30.6172 7.04312 30.824 7.12686 31.0169C7.2106 31.2097 7.33332 31.3848 7.48793 31.5319C7.64127 31.6802 7.82371 31.7979 8.02472 31.8783C8.22573 31.9586 8.44133 32 8.65909 32C8.87684 32 9.09244 31.9586 9.29345 31.8783C9.49446 31.7979 9.6769 31.6802 9.83025 31.5319L18.5562 23.1443L23.9831 28.3667C24.1365 28.5151 24.3189 28.6328 24.5199 28.7132C24.7209 28.7935 24.9365 28.8349 25.1543 28.8349C25.3721 28.8349 25.5877 28.7935 25.7887 28.7132C25.9897 28.6328 26.1721 28.5151 26.3255 28.3667L36.701 18.3966V22.4954C36.701 22.9151 36.8747 23.3177 37.1841 23.6145C37.4934 23.9112 37.913 24.078 38.3505 24.078C38.788 24.078 39.2075 23.9112 39.5169 23.6145C39.8262 23.3177 40 22.9151 40 22.4954V14.5826C39.9974 14.3758 39.9526 14.1715 39.868 13.9812Z" fill="white"/>
</svg>
