<svg width="61" height="61" viewBox="0 0 61 61" fill="none" xmlns="http://www.w3.org/2000/svg">
<path d="M55.2812 1.42991H5.71875C4.59421 1.41846 3.51106 1.85359 2.70696 2.63982C1.90287 3.42604 1.44351 4.49915 1.42969 5.62366V55.3863C1.44601 56.5092 1.90647 57.5798 2.71029 58.364C3.51411 59.1482 4.59584 59.582 5.71875 59.5705H55.2812C56.4059 59.5795 57.4883 59.1428 58.292 58.3561C59.0956 57.5694 59.5552 56.4966 59.5703 55.372V5.60936C59.5503 4.48815 59.0885 3.42016 58.2853 2.63754C57.4822 1.85493 56.4026 1.42094 55.2812 1.42991Z" fill="#0076B2"/>
<path d="M10.0364 23.2227H18.667V50.992H10.0364V23.2227ZM14.3541 9.40234C15.3439 9.40234 16.3116 9.69594 17.1346 10.246C17.9576 10.796 18.5989 11.5778 18.9775 12.4924C19.3561 13.4071 19.4549 14.4134 19.2615 15.3842C19.068 16.355 18.591 17.2466 17.8907 17.9462C17.1904 18.6459 16.2983 19.1221 15.3274 19.3146C14.3564 19.5071 13.3501 19.4074 12.4359 19.0279C11.5216 18.6484 10.7404 18.0063 10.1912 17.1828C9.64189 16.3593 9.34922 15.3914 9.35016 14.4015C9.35142 13.0752 9.87918 11.8037 10.8175 10.8663C11.7557 9.92888 13.0278 9.40234 14.3541 9.40234ZM24.0807 23.2227H32.3538V27.0352H32.4682C33.6215 24.8525 36.4332 22.5507 40.6317 22.5507C49.3719 22.5316 50.9922 28.2838 50.9922 35.742V50.992H42.3616V37.4814C42.3616 34.2646 42.3045 30.1233 37.8772 30.1233C33.4499 30.1233 32.697 33.6308 32.697 37.2717V50.992H24.0807V23.2227Z" fill="white"/>
</svg>
