<svg width="47" height="47" viewBox="0 0 47 47" fill="none" xmlns="http://www.w3.org/2000/svg">
<rect width="47" height="47" rx="23.5" fill="#FFC400"/>
<path d="M22.9993 31.9437L16.213 35.7656C15.9132 35.9439 15.5997 36.0204 15.2727 35.9949C14.9456 35.9694 14.6594 35.8675 14.4142 35.6891C14.1689 35.5108 13.9781 35.2881 13.8418 35.0211C13.7055 34.7541 13.6783 34.4544 13.7601 34.1222L15.5588 26.8989L9.54925 22.0451C9.2767 21.8158 9.10663 21.5544 9.03904 21.2609C8.97145 20.9674 8.99162 20.681 9.09955 20.4017C9.20748 20.1225 9.371 19.8932 9.59013 19.7138C9.80925 19.5344 10.1091 19.4198 10.4895 19.3698L18.4206 18.7201L21.4867 11.9172C21.623 11.6115 21.8344 11.3822 22.1212 11.2293C22.4079 11.0764 22.7006 11 22.9993 11C23.298 11 23.5907 11.0764 23.8774 11.2293C24.1642 11.3822 24.3757 11.6115 24.5119 11.9172L27.578 18.7201L35.5091 19.3698C35.8906 19.4208 36.1904 19.5355 36.4085 19.7138C36.6265 19.8922 36.79 20.1215 36.8991 20.4017C37.0081 20.682 37.0288 20.9689 36.9612 21.2624C36.8936 21.5559 36.723 21.8168 36.4494 22.0451L30.4398 26.8989L32.2386 34.1222C32.3203 34.4534 32.2931 34.753 32.1568 35.0211C32.0205 35.2891 31.8297 35.5118 31.5844 35.6891C31.3392 35.8665 31.053 35.9684 30.7259 35.9949C30.3989 36.0214 30.0855 35.9449 29.7857 35.7656L22.9993 31.9437Z" fill="white"/>
</svg>
