<svg width="20" height="20" viewBox="0 0 20 20" fill="none" xmlns="http://www.w3.org/2000/svg">
<path d="M5.41667 6.24984C5.41667 5.03426 5.89955 3.86847 6.75909 3.00893C7.61864 2.14939 8.78442 1.6665 10 1.6665C11.2156 1.6665 12.3814 2.14939 13.2409 3.00893C14.1004 3.86847 14.5833 5.03426 14.5833 6.24984C14.5833 7.46541 14.1004 8.6312 13.2409 9.49074C12.3814 10.3503 11.2156 10.8332 10 10.8332C8.78442 10.8332 7.61864 10.3503 6.75909 9.49074C5.89955 8.6312 5.41667 7.46541 5.41667 6.24984ZM2.5 15.8332C2.5 14.7281 2.93899 13.6683 3.72039 12.8869C4.50179 12.1055 5.5616 11.6665 6.66667 11.6665H13.3333C14.4384 11.6665 15.4982 12.1055 16.2796 12.8869C17.061 13.6683 17.5 14.7281 17.5 15.8332V18.3332H2.5V15.8332Z" fill="white"/>
</svg>
